<svg width="14" height="14" viewBox="0 0 14 14" fill="none" xmlns="http://www.w3.org/2000/svg">
<g opacity="0.8">
<path fill-rule="evenodd" clip-rule="evenodd" d="M7 12C8.32608 12 9.59785 11.4732 10.5355 10.5355C11.4732 9.59785 12 8.32608 12 7C12 5.67392 11.4732 4.40215 10.5355 3.46447C9.59785 2.52678 8.32608 2 7 2C5.67392 2 4.40215 2.52678 3.46447 3.46447C2.52678 4.40215 2 5.67392 2 7C2 8.32608 2.52678 9.59785 3.46447 10.5355C4.40215 11.4732 5.67392 12 7 12ZM7.625 4.5C7.625 4.33424 7.55915 4.17527 7.44194 4.05806C7.32473 3.94085 7.16576 3.875 7 3.875C6.83424 3.875 6.67527 3.94085 6.55806 4.05806C6.44085 4.17527 6.375 4.33424 6.375 4.5V7C6.37504 7.16575 6.44091 7.32469 6.55813 7.44187L8.32563 9.21C8.38369 9.26807 8.45263 9.31413 8.5285 9.34556C8.60437 9.37699 8.68569 9.39316 8.76781 9.39316C8.84993 9.39316 8.93125 9.37699 9.00712 9.34556C9.08299 9.31413 9.15193 9.26807 9.21 9.21C9.26807 9.15193 9.31413 9.08299 9.34556 9.00712C9.37699 8.93125 9.39316 8.84993 9.39316 8.76781C9.39316 8.68569 9.37699 8.60437 9.34556 8.5285C9.31413 8.45263 9.26807 8.38369 9.21 8.32563L7.625 6.74125V4.5Z" fill="white"/>
</g>
</svg>
