<svg width="40" height="40" viewBox="0 0 40 40" fill="none" xmlns="http://www.w3.org/2000/svg">
<g opacity="0.8">
<path d="M7.63666 14.9999H6.66666V6.66659L7.63666 14.9999ZM7.63666 14.9999C8.74307 12.2635 10.7261 9.97143 13.275 8.48302C15.8239 6.99461 18.7947 6.39394 21.7216 6.77515C24.6485 7.15637 27.3663 8.49791 29.4489 10.5895C31.5316 12.6812 32.8614 15.4047 33.23 18.3333M7.63666 14.9999H15M32.365 24.9999H33.3333V33.3333L32.365 24.9999ZM32.365 24.9999C31.257 27.7348 29.2734 30.025 26.7247 31.5121C24.1761 32.9992 21.2062 33.5991 18.2802 33.218C15.3541 32.837 12.637 31.4964 10.5542 29.4061C8.47144 27.3159 7.14058 24.594 6.76999 21.6666M32.365 24.9999H25" stroke="#121212" stroke-linecap="round" stroke-linejoin="round"/>
</g>
</svg>
