<svg width="14" height="14" viewBox="0 0 14 14" fill="none" xmlns="http://www.w3.org/2000/svg">
<g opacity="0.8">
<path fill-rule="evenodd" clip-rule="evenodd" d="M3.53502 2.83503C4.454 1.91606 5.7004 1.39978 7.00002 1.39978C8.29965 1.39978 9.54605 1.91606 10.465 2.83503C11.384 3.75401 11.9003 5.0004 11.9003 6.30003C11.9003 7.59966 11.384 8.84606 10.465 9.76503L7.00002 13.23L3.53502 9.76503C3.07996 9.31002 2.71899 8.76982 2.47271 8.17529C2.22643 7.58077 2.09967 6.94355 2.09967 6.30003C2.09967 5.65651 2.22643 5.01929 2.47271 4.42477C2.71899 3.83024 3.07996 3.29004 3.53502 2.83503ZM7.00002 7.70003C7.37133 7.70003 7.72742 7.55253 7.98997 7.28998C8.25253 7.02743 8.40003 6.67133 8.40003 6.30003C8.40003 5.92873 8.25253 5.57263 7.98997 5.31008C7.72742 5.04753 7.37133 4.90003 7.00002 4.90003C6.62872 4.90003 6.27263 5.04753 6.01008 5.31008C5.74752 5.57263 5.60002 5.92873 5.60002 6.30003C5.60002 6.67133 5.74752 7.02743 6.01008 7.28998C6.27263 7.55253 6.62872 7.70003 7.00002 7.70003Z" fill="white"/>
</g>
</svg>
