<svg width="14" height="14" viewBox="0 0 14 14" fill="none" xmlns="http://www.w3.org/2000/svg">
<g clip-path="url(#clip0_119_260)">
<path d="M13.0667 7.03693C13.0667 3.6652 10.3513 0.93335 6.99999 0.93335C3.64864 0.93335 0.933319 3.6652 0.933319 7.03693C0.933319 10.0833 3.15181 12.6084 6.05207 13.0667V8.80131H4.51094V7.03693H6.05207V5.69218C6.05207 4.16259 6.95718 3.31768 8.34346 3.31768C9.00737 3.31768 9.70161 3.4368 9.70161 3.4368V4.93809H8.93643C8.18299 4.93809 7.9479 5.40865 7.9479 5.89128V7.03693H9.63042L9.36134 8.80131H7.9479V13.0667C10.8482 12.6084 13.0667 10.0833 13.0667 7.03693Z" fill="white"/>
</g>
<defs>
<clipPath id="clip0_119_260">
<rect width="14" height="14" fill="white"/>
</clipPath>
</defs>
</svg>
