<svg width="14" height="14" viewBox="0 0 14 14" fill="none" xmlns="http://www.w3.org/2000/svg">
<path d="M7 5.17751C5.99649 5.17751 5.17754 5.99645 5.17754 6.99997C5.17754 8.00348 5.99649 8.82243 7 8.82243C8.00352 8.82243 8.82247 8.00348 8.82247 6.99997C8.82247 5.99645 8.00352 5.17751 7 5.17751ZM12.466 6.99997C12.466 6.24528 12.4729 5.49743 12.4305 4.74411C12.3881 3.86911 12.1885 3.09254 11.5486 2.4527C10.9074 1.81149 10.1322 1.61325 9.25723 1.57087C8.50254 1.52848 7.75469 1.53532 7.00137 1.53532C6.24668 1.53532 5.49883 1.52848 4.74551 1.57087C3.87051 1.61325 3.09395 1.81286 2.45411 2.4527C1.81289 3.09391 1.61465 3.86911 1.57227 4.74411C1.52989 5.49879 1.53672 6.24665 1.53672 6.99997C1.53672 7.75329 1.52989 8.5025 1.57227 9.25582C1.61465 10.1308 1.81426 10.9074 2.45411 11.5472C3.09532 12.1884 3.87051 12.3867 4.74551 12.4291C5.5002 12.4714 6.24805 12.4646 7.00137 12.4646C7.75606 12.4646 8.50391 12.4714 9.25723 12.4291C10.1322 12.3867 10.9088 12.1871 11.5486 11.5472C12.1898 10.906 12.3881 10.1308 12.4305 9.25582C12.4742 8.5025 12.466 7.75465 12.466 6.99997V6.99997ZM7 9.80407C5.44825 9.80407 4.1959 8.55172 4.1959 6.99997C4.1959 5.44821 5.44825 4.19586 7 4.19586C8.55176 4.19586 9.80411 5.44821 9.80411 6.99997C9.80411 8.55172 8.55176 9.80407 7 9.80407ZM9.91895 4.7359C9.55665 4.7359 9.26407 4.44333 9.26407 4.08102C9.26407 3.71872 9.55665 3.42614 9.91895 3.42614C10.2813 3.42614 10.5738 3.71872 10.5738 4.08102C10.5739 4.16705 10.5571 4.25226 10.5242 4.33176C10.4913 4.41126 10.4431 4.4835 10.3823 4.54433C10.3214 4.60517 10.2492 4.6534 10.1697 4.68627C10.0902 4.71915 10.005 4.73601 9.91895 4.7359V4.7359Z" fill="white"/>
</svg>
