<svg width="14" height="14" viewBox="0 0 14 14" fill="none" xmlns="http://www.w3.org/2000/svg">
<g opacity="0.8">
<path d="M1.75 2.91667C1.75 2.60725 1.87292 2.3105 2.09171 2.09171C2.3105 1.87292 2.60725 1.75 2.91667 1.75H4.83C4.95238 1.75009 5.07163 1.78867 5.17087 1.86028C5.27012 1.93189 5.34433 2.03289 5.383 2.149L6.25683 4.76992C6.30111 4.90311 6.29587 5.04781 6.24208 5.17746C6.1883 5.30711 6.08956 5.41301 5.964 5.47575L4.64742 6.13492C5.29277 7.56323 6.43677 8.70723 7.86508 9.35258L8.52425 8.036C8.58698 7.91044 8.69289 7.8117 8.82254 7.75792C8.95219 7.70413 9.09689 7.69889 9.23008 7.74317L11.851 8.617C11.9672 8.6557 12.0683 8.73 12.1399 8.82936C12.2115 8.92872 12.25 9.0481 12.25 9.17058V11.0833C12.25 11.3928 12.1271 11.6895 11.9083 11.9083C11.6895 12.1271 11.3928 12.25 11.0833 12.25H10.5C5.66767 12.25 1.75 8.33233 1.75 3.5V2.91667Z" fill="white" stroke="#121212" stroke-linecap="round" stroke-linejoin="round"/>
</g>
</svg>
