<svg width="14" height="14" viewBox="0 0 14 14" fill="none" xmlns="http://www.w3.org/2000/svg">
<path d="M13.4531 2.99414C12.9774 3.20469 12.4688 3.34688 11.9328 3.4125C12.4797 3.08438 12.9008 2.56484 13.0977 1.94687C12.5863 2.25039 12.0203 2.47187 11.416 2.58945C10.932 2.07266 10.243 1.75 9.48282 1.75C8.01993 1.75 6.83595 2.93672 6.83595 4.39961C6.83595 4.60742 6.85782 4.80977 6.90431 5.00391C4.70314 4.89453 2.75079 3.83906 1.4465 2.23398C1.21954 2.625 1.08829 3.08164 1.08829 3.56562C1.08829 4.48437 1.55861 5.29648 2.26954 5.77227C1.83204 5.76133 1.42189 5.64102 1.06642 5.44141V5.47422C1.06642 6.75937 1.9797 7.82852 3.19103 8.07188C2.96954 8.13203 2.73439 8.16484 2.49376 8.16484C2.32423 8.16484 2.15743 8.14844 1.99611 8.11562C2.33243 9.16836 3.31134 9.93398 4.47072 9.95586C3.56564 10.6668 2.42267 11.0906 1.18126 11.0906C0.967981 11.0906 0.757434 11.077 0.549622 11.0523C1.7172 11.8125 3.109 12.25 4.60197 12.25C9.47736 12.25 12.1406 8.21133 12.1406 4.70859C12.1406 4.59375 12.1379 4.47891 12.1324 4.3668C12.6492 3.99219 13.0977 3.52734 13.4531 2.99414Z" fill="white"/>
</svg>
