<svg width="14" height="14" viewBox="0 0 14 14" fill="none" xmlns="http://www.w3.org/2000/svg">
<g clip-path="url(#clip0_119_251)">
<path d="M7 0.875C3.61758 0.875 0.875 3.61758 0.875 7C0.875 9.50742 2.38438 11.6621 4.5418 12.6109C4.52539 12.1844 4.53906 11.6703 4.64844 11.2055C4.76602 10.7078 5.43594 7.8668 5.43594 7.8668C5.43594 7.8668 5.23906 7.47578 5.23906 6.89883C5.23906 5.99101 5.76406 5.31289 6.42031 5.31289C6.97813 5.31289 7.24609 5.73125 7.24609 6.23164C7.24609 6.79219 6.88789 7.62891 6.70469 8.40547C6.55156 9.05625 7.03008 9.58398 7.67266 9.58398C8.83203 9.58398 9.61406 8.09375 9.61406 6.32734C9.61406 4.98476 8.70898 3.98125 7.06562 3.98125C5.20898 3.98125 4.04961 5.36758 4.04961 6.91523C4.04961 7.44844 4.2082 7.82578 4.4543 8.11562C4.56641 8.24961 4.58281 8.3043 4.5418 8.45742C4.51172 8.56953 4.44609 8.84023 4.41602 8.94961C4.375 9.10547 4.24922 9.16015 4.10977 9.10273C3.25391 8.75273 2.85469 7.81758 2.85469 6.76211C2.85469 5.02305 4.32305 2.93672 7.23242 2.93672C9.57031 2.93672 11.1098 4.6293 11.1098 6.44492C11.1098 8.84844 9.77266 10.6422 7.80391 10.6422C7.14219 10.6422 6.52148 10.284 6.3082 9.8793C6.3082 9.8793 5.95273 11.2902 5.87617 11.5637C5.74766 12.0367 5.49336 12.507 5.26094 12.8762C5.81055 13.0375 6.39297 13.1277 6.99727 13.1277C10.3797 13.1277 13.1223 10.3852 13.1223 7.00273C13.125 3.61758 10.3824 0.875 7 0.875Z" fill="white"/>
</g>
<defs>
<clipPath id="clip0_119_251">
<rect width="14" height="14" fill="white"/>
</clipPath>
</defs>
</svg>
